<?xml version="1.0" encoding="UTF-8"?>
<svg id="SVGDoc" width="188" height="189" xmlns="http://www.w3.org/2000/svg" version="1.1" xmlns:xlink="http://www.w3.org/1999/xlink" xmlns:avocode="https://avocode.com/" viewBox="0 0 188 189"><defs><clipPath id="ClipPath1016"><path d="M94,60.12497c18.77766,0 33.99992,15.22216 33.99992,33.99942c0,18.7779 -15.22226,34.00006 -33.99992,34.00006c-18.77775,0 -34.00002,-15.22216 -34.00002,-34.00006c0,-18.77726 15.22226,-33.99942 34.00002,-33.99942z" fill="#ffffff"></path></clipPath></defs><desc>Generated with Avocode.</desc><g><g><title>Ellipse 2</title><path d="M94,60.12497c18.77766,0 33.99992,15.22216 33.99992,33.99942c0,18.7779 -15.22226,34.00006 -33.99992,34.00006c-18.77775,0 -34.00002,-15.22216 -34.00002,-34.00006c0,-18.77726 15.22226,-33.99942 34.00002,-33.99942z" fill-opacity="0" fill="#ffffff" stroke-dashoffset="0" stroke-dasharray="" stroke-linejoin="miter" stroke-linecap="butt" stroke-opacity="1" stroke="#00d7bb" stroke-miterlimit="20" stroke-width="6" clip-path="url(&quot;#ClipPath1016&quot;)"></path></g><g><title></title><g transform="matrix(1,0,0,1,79,84)"><text dominant-baseline="text-before-edge" style="fill: #00d7bb; fill-opacity: 1; font-size: 24px; font-family: 'FontAwesome', 'FontAwesome'; font-weight: normal; font-style: none; text-transform: uppercase" ><tspan style="letter-spacing: 0.48px; font-kerning: normal"></tspan><tspan style="letter-spacing: 0.48px; font-kerning: normal"></tspan></text></g></g></g></svg>