<svg xmlns="http://www.w3.org/2000/svg" width="1440" height="219.209"><path d="M1440 219.208H0V0c23.857 8.7 48.946 17.064 74.573 24.864 25.709 7.825 52.57 15.267 79.837 22.119 27.414 6.889 55.9 13.348 84.673 19.2 28.98 5.892 58.951 11.31 89.081 16.1 30.406 4.835 61.716 9.152 93.061 12.829a2462.706 2462.706 0 0096.612 9.381 2585.495 2585.495 0 0099.735 5.757 2680.546 2680.546 0 00204.858 0 2589.343 2589.343 0 0099.734-5.757 2465.003 2465.003 0 0096.612-9.381c31.345-3.677 62.655-7.994 93.061-12.829 30.129-4.791 60.1-10.209 89.081-16.1 28.766-5.849 57.254-12.308 84.673-19.2 27.268-6.852 54.129-14.294 79.837-22.119 25.616-7.8 50.706-16.162 74.573-24.864v219.208z" fill="#fff"/></svg>