<svg xmlns="http://www.w3.org/2000/svg" viewBox="0 0 128 128"><style/><path d="M104 126H24c-5.5 0-10-4.5-10-10V12c0-5.5 4.5-10 10-10h40.7c2.7 0 5.2 1 7.1 2.9l39.3 39.3c1.9 1.9 2.9 4.4 2.9 7.1V116c0 5.5-4.5 10-10 10zM24 6c-3.3 0-6 2.7-6 6v104c0 3.3 2.7 6 6 6h80c3.3 0 6-2.7 6-6V51.3c0-1.6-.6-3.1-1.8-4.2L68.9 7.8C67.8 6.6 66.3 6 64.7 6H24z" fill="#00b8df"/><path d="M63 75.4c0 3.7-1.2 6.5-3.5 8.5s-5.6 2.9-9.8 2.9h-3.1V99h-7.3V64.7h10.9c4.2 0 7.3.9 9.5 2.7s3.3 4.5 3.3 8zm-16.4 5.5H49c2.2 0 3.9-.4 5-1.3s1.7-2.2 1.7-3.9c0-1.7-.5-3-1.4-3.8s-2.4-1.2-4.4-1.2h-3.3v10.2zm40.6 10.3c0 2.7-.9 4.7-2.8 6.1s-4.7 2.1-8.4 2.1c-1.9 0-3.5-.1-4.9-.4s-2.6-.6-3.8-1.1V92c1.3.6 2.8 1.1 4.5 1.6s3.1.6 4.4.6c2.6 0 3.9-.8 3.9-2.3 0-.6-.2-1-.5-1.4s-.9-.8-1.8-1.2-2-1-3.4-1.6c-2-.8-3.5-1.6-4.4-2.3s-1.6-1.5-2.1-2.5-.6-2.1-.6-3.4c0-2.3.9-4.1 2.7-5.4s4.4-1.9 7.7-1.9c3.2 0 6.2.7 9.2 2.1l-2.2 5.2c-1.3-.6-2.5-1-3.7-1.4s-2.3-.5-3.5-.5c-2.1 0-3.2.6-3.2 1.7 0 .6.3 1.2 1 1.7s2.2 1.2 4.5 2.1c2 .8 3.5 1.6 4.5 2.3s1.7 1.5 2.1 2.5.8 2 .8 3.3z" fill="#00b8df"/></svg>